grf
version=1
nRows=9
nColumns=37
inDegrees=no
endheader
time	ground_force_1_vx	ground_force_1_vy	ground_force_1_vz	ground_force_1_px	ground_force_1_py	ground_force_1_pz	ground_moment_1_mx	ground_moment_1_my	ground_moment_1_mz	ground_force_2_vx	ground_force_2_vy	ground_force_2_vz	ground_force_2_px	ground_force_2_py	ground_force_2_pz	ground_moment_2_mx	ground_moment_2_my	ground_moment_2_mz	ground_force_3_vx	ground_force_3_vy	ground_force_3_vz	ground_force_3_px	ground_force_3_py	ground_force_3_pz	ground_moment_3_mx	ground_moment_3_my	ground_moment_3_mz	ground_force_4_vx	ground_force_4_vy	ground_force_4_vz	ground_force_4_px	ground_force_4_py	ground_force_4_pz	ground_moment_4_mx	ground_moment_4_my	ground_moment_4_mz
      0.00000000	      0.00000000	     -0.00000000	      0.00000000	      0.00000000	      0.00000000	      0.00000000	      0.00000000	      0.00000000	      0.00000000	      0.94527715	     21.91510010	   -341.87817383	   -321.04386885	  -1033.49051618	      0.00000000	      0.00000000	      0.00000000	   2446.66146443	     -2.10460198	    -23.21951848	   -282.96945190	   -298.25041306	   -777.82373144	      0.00000000	     -0.00000000	     -0.00000000	  -2429.39862840	      0.00000000	     -0.00000000	      0.00000000	      0.00000000	      0.00000000	      0.00000000	      0.00000000	      0.00000000	      0.00000000
      0.01000000	      0.00000000	     -0.00000000	      0.00000000	      0.00000000	      0.00000000	      0.00000000	      0.00000000	      0.00000000	      0.00000000	      1.14601648	     21.69526100	   -341.57931519	   -321.36797967	  -1033.22582249	      0.00000000	      0.00000000	      0.00000000	   2516.36734873	     -1.74964572	    -23.33185371	   -283.54882812	   -298.44597072	   -776.51987587	      0.00000000	      0.00000000	     -0.00000000	  -2492.89502155	      0.00000000	     -0.00000000	      0.00000000	      0.00000000	      0.00000000	      0.00000000	      0.00000000	      0.00000000	      0.00000000
      0.02000000	      0.00000000	     -0.00000000	      0.00000000	      0.00000000	      0.00000000	      0.00000000	      0.00000000	      0.00000000	      0.00000000	      1.36343467	     21.83694839	   -341.42495728	   -321.56551598	  -1033.39651056	      0.00000000	      0.00000000	     -0.00000000	   2475.06201574	     -1.78424676	    -22.66949066	   -281.62872314	   -298.20321962	   -778.44283961	      0.00000000	      0.00000000	     -0.00000000	  -2430.76704915	      0.00000000	     -0.00000000	      0.00000000	      0.00000000	      0.00000000	      0.00000000	      0.00000000	      0.00000000	      0.00000000
      0.03000000	      0.00000000	     -0.00000000	      0.00000000	      0.00000000	      0.00000000	      0.00000000	      0.00000000	      0.00000000	      0.00000000	      1.33758676	     22.12972450	   -340.56604004	   -321.13115480	  -1032.23163521	      0.00000000	      0.00000000	      0.00000000	   2369.66188574	     -1.87719617	    -22.91052230	   -282.11450195	   -298.93444190	   -777.18746294	      0.00000000	      0.00000000	     -0.00000000	  -2432.24059993	      0.00000000	     -0.00000000	      0.00000000	      0.00000000	      0.00000000	      0.00000000	      0.00000000	      0.00000000	      0.00000000
      0.04000000	      0.00000000	     -0.00000000	      0.00000000	      0.00000000	      0.00000000	      0.00000000	      0.00000000	      0.00000000	      0.00000000	      1.49118567	     22.12982178	   -340.86889648	   -320.83881739	  -1032.43161254	      0.00000000	      0.00000000	      0.00000000	   2298.92414246	     -1.83801722	    -23.10156425	   -280.71789551	   -299.18833252	   -779.83697202	      0.00000000	      0.00000000	     -0.00000000	  -2471.91186918	      0.00000000	     -0.00000000	      0.00000000	      0.00000000	      0.00000000	      0.00000000	      0.00000000	      0.00000000	      0.00000000
      0.05000000	      0.00000000	     -0.00000000	      0.00000000	      0.00000000	      0.00000000	      0.00000000	      0.00000000	      0.00000000	      0.00000000	      1.52893436	     21.96401787	   -341.47247314	   -320.10517339	  -1033.27586289	      0.00000000	      0.00000000	      0.00000000	   2335.98155411	     -1.87656639	    -22.92514594	   -282.06085205	   -299.49519436	   -778.66655577	      0.00000000	     -0.00000000	     -0.00000000	  -2425.84843680	      0.00000000	     -0.00000000	      0.00000000	      0.00000000	      0.00000000	      0.00000000	      0.00000000	      0.00000000	      0.00000000
      0.06000000	      0.00000000	     -0.00000000	      0.00000000	      0.00000000	      0.00000000	      0.00000000	      0.00000000	      0.00000000	      0.00000000	      1.38962150	     21.60726929	   -340.26846313	   -322.18002233	  -1031.42072134	      0.00000000	      0.00000000	      0.00000000	   2398.69331581	     -1.59679613	    -22.86207567	   -282.71386719	   -299.05698569	   -777.92790311	      0.00000000	      0.00000000	     -0.00000000	  -2538.40365360	      0.00000000	     -0.00000000	      0.00000000	      0.00000000	      0.00000000	      0.00000000	      0.00000000	      0.00000000	      0.00000000
      0.07000000	      0.00000000	     -0.00000000	      0.00000000	      0.00000000	      0.00000000	      0.00000000	      0.00000000	      0.00000000	      0.00000000	      1.38726819	     21.68452644	   -340.92105103	   -321.20076507	  -1032.39372558	      0.00000000	      0.00000000	      0.00000000	   2348.01997123	     -1.99037061	    -22.97649175	   -282.36206055	   -299.22306653	   -777.22435170	      0.00000000	     -0.00000000	     -0.00000000	  -2342.61961563	      0.00000000	     -0.00000000	      0.00000000	      0.00000000	      0.00000000	      0.00000000	      0.00000000	      0.00000000	      0.00000000
      0.08000000	      0.00000000	     -0.00000000	      0.00000000	      0.00000000	      0.00000000	      0.00000000	      0.00000000	      0.00000000	      0.00000000	      0.94402701	     21.26491165	   -339.96466064	   -321.35517231	  -1032.35086421	      0.00000000	      0.00000000	      0.00000000	   2402.07499418	     -1.25456842	    -22.77443493	   -281.01739502	   -299.25349430	   -780.89494117	      0.00000000	      0.00000000	     -0.00000000	  -2557.91308814	      0.00000000	     -0.00000000	      0.00000000	      0.00000000	      0.00000000	      0.00000000	      0.00000000	      0.00000000	      0.00000000
